<?xml version="1.0" standalone="no"?>
<!DOCTYPE svg PUBLIC "-//W3C//DTD SVG 20010904//EN"
 "http://www.w3.org/TR/2001/REC-SVG-20010904/DTD/svg10.dtd">
<svg version="1.0" xmlns="http://www.w3.org/2000/svg"
 width="526.000000pt" height="552.000000pt" viewBox="0 0 526.000000 552.000000"
 preserveAspectRatio="xMidYMid meet">

<g transform="translate(0.000000,552.000000) scale(0.100000,-0.100000)"
fill="#000000" stroke="none">
<path d="M2134 4836 c-160 -86 -310 -225 -407 -378 -56 -88 -92 -164 -126
-267 -54 -160 -62 -229 -68 -550 l-5 -295 73 83 74 82 6 312 c7 351 13 393 88
567 81 189 226 355 389 447 75 43 55 42 -24 -1z"/>
<path d="M2990 4833 c78 -46 216 -175 275 -258 96 -134 164 -310 185 -477 6
-49 10 -349 10 -741 0 -624 1 -659 18 -652 102 43 389 71 620 62 153 -6 316
-33 400 -66 86 -34 87 -33 22 9 -157 103 -339 177 -492 201 -45 7 -139 10
-244 6 l-172 -5 -5 502 c-5 539 -9 587 -63 757 -93 296 -300 546 -561 678 -67
34 -63 24 7 -16z"/>
<path d="M810 2119 c-122 -7 -365 -50 -383 -68 -5 -5 -7 -17 -5 -27 5 -25 35
-24 168 5 128 28 416 39 582 22 279 -28 626 -144 898 -299 205 -117 490 -328
490 -362 0 -18 49 -10 59 9 6 10 50 50 98 89 390 310 815 501 1242 557 208 28
528 14 699 -30 64 -17 102 -13 102 9 0 8 -6 18 -13 25 -18 14 -160 47 -267 61
-127 17 -425 14 -550 -5 -451 -70 -892 -272 -1258 -578 -90 -75 -82 -74 -142
-19 -94 87 -335 248 -503 337 -396 209 -786 297 -1217 274z"/>
<path d="M2554 1279 c-10 -17 13 -36 27 -22 12 12 4 33 -11 33 -5 0 -12 -5
-16 -11z"/>
<path d="M2610 1271 c0 -12 6 -21 16 -21 9 0 14 7 12 17 -5 25 -28 28 -28 4z"/>
<path d="M752 1138 l3 -143 408 -3 407 -2 11 27 c5 14 9 56 7 92 -3 58 -5 66
-23 66 -18 0 -20 -7 -21 -70 l-1 -70 -374 0 -374 0 0 120 c0 117 -1 120 -23
123 l-23 3 3 -143z"/>
<path d="M2275 1270 c-3 -6 -6 -20 -5 -33 1 -12 2 -64 1 -114 l-1 -93 -290 0
-290 0 0 75 c0 68 -2 75 -20 75 -19 0 -20 -7 -20 -100 0 -85 -3 -101 -18 -109
-10 -5 -26 -9 -37 -8 -11 1 -21 -5 -23 -14 -2 -13 6 -17 44 -17 52 -1 74 10
74 39 0 18 13 19 295 19 365 0 337 -14 333 163 -3 104 -5 122 -20 125 -9 2
-19 -2 -23 -8z"/>
<path d="M2340 1136 c0 -139 1 -146 20 -146 19 0 20 7 20 135 0 74 1 138 3
143 1 4 -8 8 -20 10 -23 3 -23 3 -23 -142z"/>
<path d="M3875 1268 c-3 -8 -4 -72 -3 -144 l3 -129 293 -3 293 -2 24 24 c35
35 35 107 0 141 -20 21 -34 25 -85 25 l-60 0 0 -35 c0 -28 4 -35 20 -35 11 0
20 7 20 15 0 24 67 20 80 -4 15 -29 12 -56 -8 -74 -16 -15 -50 -17 -275 -17
l-256 0 -3 122 c-3 108 -5 123 -21 126 -9 2 -19 -3 -22 -10z"/>
<path d="M2626 1195 c-3 -9 -18 -15 -36 -15 -47 0 -80 -38 -80 -93 0 -29 7
-53 19 -68 l19 -24 619 -3 c613 -2 620 -2 646 18 32 26 44 79 27 121 -16 39
-37 49 -99 49 l-51 0 0 -70 c0 -63 2 -70 19 -70 17 0 20 8 23 48 3 42 5 47 28
47 16 0 29 -9 39 -26 13 -24 13 -29 -2 -53 l-17 -26 -344 0 c-319 0 -344 1
-359 18 -29 32 -14 92 23 92 16 0 20 -7 20 -31 0 -26 3 -30 22 -27 20 3 23 9
22 48 l-1 45 -45 3 c-37 2 -51 -2 -74 -22 -25 -21 -29 -31 -27 -75 l1 -51
-222 0 c-159 0 -225 3 -234 12 -17 17 -15 73 2 88 8 6 25 10 37 8 19 -3 23 -9
23 -48 1 -38 4 -45 21 -45 18 0 20 8 23 83 3 75 1 82 -17 82 -10 0 -21 -7 -25
-15z"/>
<path d="M685 1168 c-2 -7 -6 -53 -7 -103 l-3 -90 -42 -3 c-33 -2 -44 1 -57
20 -28 40 -11 118 26 118 11 0 18 7 18 20 0 17 -4 19 -27 14 -51 -12 -68 -38
-68 -104 0 -81 21 -103 104 -107 85 -4 91 4 91 128 0 54 0 102 1 107 0 13 -31
14 -36 0z"/>
<path d="M610 1060 c0 -11 7 -20 15 -20 8 0 15 9 15 20 0 11 -7 20 -15 20 -8
0 -15 -9 -15 -20z"/>
<path d="M1524 959 c-10 -17 13 -36 27 -22 12 12 4 33 -11 33 -5 0 -12 -5 -16
-11z"/>
<path d="M4401 957 c-9 -11 -8 -17 4 -27 12 -10 16 -9 21 5 9 23 -10 40 -25
22z"/>
<path d="M566 822 c-3 -5 -25 -88 -49 -186 -37 -144 -42 -178 -31 -183 25 -9
41 5 48 42 7 36 7 36 53 33 42 -3 46 -5 57 -38 8 -24 18 -36 34 -38 14 -2 22
2 22 10 0 12 -41 177 -81 331 -7 26 -15 37 -29 37 -10 0 -21 -4 -24 -8z m39
-156 c14 -61 12 -66 -23 -66 -23 0 -24 3 -18 38 19 110 22 112 41 28z"/>
<path d="M750 652 c0 -125 4 -182 12 -190 7 -7 42 -12 86 -12 l73 0 -3 43 -3
42 -57 3 -58 3 0 144 0 145 -25 0 -25 0 0 -178z"/>
<path d="M1157 823 c-4 -3 -7 -89 -7 -190 l0 -184 23 3 c20 3 22 9 23 68 1 57
4 65 21 68 16 2 26 -11 51 -68 23 -53 36 -70 51 -70 30 0 31 10 5 74 -28 70
-29 74 -9 96 43 47 23 180 -30 200 -30 11 -118 14 -128 3z m121 -85 c7 -7 12
-21 12 -33 0 -30 -19 -45 -56 -45 -40 0 -43 4 -37 53 5 34 8 37 37 37 18 0 37
-5 44 -12z"/>
<path d="M1486 822 c-3 -5 -25 -88 -49 -186 -37 -144 -42 -178 -31 -183 25 -9
41 5 48 42 7 36 7 36 54 33 45 -3 47 -4 55 -40 7 -31 13 -38 33 -38 13 0 24 6
24 13 0 10 -47 204 -81 330 -7 26 -15 37 -29 37 -10 0 -21 -4 -24 -8z m39
-156 c7 -30 10 -57 7 -60 -12 -12 -52 -6 -52 8 0 24 23 116 28 111 2 -2 10
-29 17 -59z"/>
<path d="M1650 825 c0 -3 20 -56 45 -116 39 -96 45 -119 45 -184 0 -73 1 -75
25 -75 24 0 25 2 25 75 0 67 5 89 45 185 25 60 45 112 45 115 0 4 -12 5 -27 3
-24 -3 -31 -12 -54 -73 -15 -38 -31 -68 -36 -66 -4 3 -19 34 -33 70 -22 57
-29 66 -53 69 -15 2 -27 1 -27 -3z"/>
<path d="M2004 815 c-4 -9 -26 -92 -49 -186 -34 -137 -40 -172 -29 -176 25 -9
43 5 50 42 6 36 7 36 51 33 42 -3 46 -6 57 -38 8 -24 18 -36 34 -38 15 -2 22
2 22 13 0 17 -63 277 -81 333 -11 34 -45 45 -55 17z m41 -146 c16 -60 13 -69
-22 -69 -24 0 -25 2 -19 33 4 17 10 47 13 65 7 41 11 37 28 -29z"/>
<path d="M2201 817 c-8 -10 -11 -66 -9 -188 3 -172 3 -174 26 -177 22 -3 22
-2 22 107 0 61 3 111 8 111 4 0 27 -49 52 -108 36 -84 50 -107 65 -107 19 0
20 9 23 188 l2 187 -25 0 -25 0 0 -107 c0 -58 -3 -103 -7 -100 -3 4 -25 51
-49 104 -42 97 -60 117 -83 90z"/>
<path d="M2550 690 c0 -186 21 -239 96 -240 37 0 70 32 84 81 6 19 10 94 10
166 l0 133 -25 0 -25 0 0 -124 c0 -143 -8 -176 -44 -176 -14 0 -28 6 -33 13
-4 6 -10 73 -13 147 -5 131 -6 135 -27 138 -23 3 -23 3 -23 -138z"/>
<path d="M2805 808 c-3 -13 -4 -97 -3 -188 3 -163 3 -165 26 -168 22 -3 22 -2
22 107 0 61 3 111 8 111 4 0 27 -49 52 -108 36 -85 49 -107 65 -107 19 0 20 8
23 188 l2 187 -25 0 -25 0 0 -107 c0 -58 -3 -103 -7 -100 -3 4 -25 51 -49 104
-32 73 -47 99 -63 101 -14 2 -22 -3 -26 -20z"/>
<path d="M3070 651 c0 -100 0 -184 0 -188 0 -5 10 -8 23 -8 l22 0 0 185 c0
184 0 185 -22 188 l-23 3 0 -180z"/>
<path d="M3164 813 c2 -10 21 -90 41 -178 21 -88 42 -166 47 -172 18 -22 36
-14 47 20 11 34 81 329 81 340 0 4 -11 7 -25 7 -27 0 -29 -5 -61 -163 -9 -48
-20 -85 -23 -81 -3 3 -17 58 -31 122 -24 114 -26 117 -53 120 -24 3 -28 0 -23
-15z"/>
<path d="M3442 818 c-19 -19 -17 -341 2 -357 9 -7 41 -11 83 -9 l68 3 0 40 0
40 -55 1 -55 1 -3 36 -3 37 40 0 c41 0 41 0 41 39 0 39 -1 40 -37 43 -33 3
-38 6 -38 28 0 23 4 25 58 28 l58 3 -3 37 -3 37 -70 3 c-46 2 -74 -1 -83 -10z"/>
<path d="M3673 823 c-10 -3 -13 -51 -13 -190 l0 -184 23 3 c20 3 22 9 25 71 2
57 6 67 21 67 13 0 27 -21 49 -70 27 -60 34 -70 56 -70 32 0 32 1 0 77 -15 34
-24 68 -20 75 4 7 13 24 21 38 32 55 8 162 -40 180 -27 10 -100 12 -122 3z
m115 -85 c7 -7 12 -21 12 -33 0 -30 -19 -45 -57 -45 -32 0 -33 1 -33 45 0 44
1 45 33 45 18 0 38 -5 45 -12z"/>
<path d="M3962 823 c-21 -8 -42 -60 -42 -106 0 -54 26 -91 75 -107 38 -13 58
-39 49 -64 -10 -26 -58 -24 -87 2 -18 16 -20 15 -33 -3 -17 -23 -17 -35 -1
-56 18 -24 52 -39 87 -39 66 0 107 85 79 163 -11 32 -24 45 -64 66 -56 30 -72
64 -35 76 15 5 29 0 45 -15 l23 -21 16 22 c22 32 20 44 -10 68 -25 20 -72 26
-102 14z"/>
<path d="M4160 640 l0 -191 23 3 c22 3 22 4 22 188 0 184 0 185 -22 188 l-23
3 0 -191z"/>
<path d="M4257 824 c-4 -4 -7 -22 -7 -40 0 -30 3 -33 36 -36 l36 -3 1 -145 c2
-142 3 -145 24 -148 22 -3 22 -2 25 145 l3 148 38 3 c37 3 38 4 35 40 l-3 37
-90 3 c-50 1 -94 0 -98 -4z"/>
<path d="M4478 824 c-3 -3 12 -47 35 -97 33 -77 41 -106 46 -182 6 -84 8 -90
29 -93 21 -3 22 0 22 68 0 61 6 86 45 181 25 61 45 114 45 119 0 6 -11 10 -24
10 -22 0 -28 -10 -53 -75 -15 -41 -30 -75 -34 -75 -3 0 -19 34 -34 75 -23 63
-31 75 -49 75 -13 0 -25 -3 -28 -6z"/>
<path d="M975 645 l0 -45 58 0 57 0 0 45 0 45 -57 0 -58 0 0 -45z"/>
</g>
</svg>
